<svg width="18" height="16" viewBox="0 0 18 16" fill="none" xmlns="http://www.w3.org/2000/svg">
<path d="M4.34935 12.7749C2.49102 11.5582 1.29102 9.72487 1.29102 8.11654C1.29102 5.3832 4.74102 2.0332 8.99935 2.0332C10.741 2.0332 12.3577 2.59154 13.6577 3.4582" stroke="#727272" stroke-width="1.5" stroke-linecap="round" stroke-linejoin="round"/>
<path d="M15.54 5.17578C16.2825 6.11745 16.715 7.15911 16.715 8.11745C16.715 10.8508 13.2566 14.2008 8.99831 14.2008C8.23997 14.2008 7.49914 14.0924 6.80664 13.9008" stroke="#727272" stroke-width="1.5" stroke-linecap="round" stroke-linejoin="round"/>
<path d="M7.13804 9.97338C6.6422 9.48255 6.3647 8.81338 6.3672 8.11588C6.36387 6.66171 7.54054 5.48005 8.99554 5.47755C9.69554 5.47588 10.3672 5.75338 10.8622 6.24838" stroke="#727272" stroke-width="1.5" stroke-linecap="round" stroke-linejoin="round"/>
<path d="M11.5907 8.58301C11.3957 9.65967 10.5532 10.5038 9.47656 10.7013" stroke="#727272" stroke-width="1.5" stroke-linecap="round" stroke-linejoin="round"/>
<path d="M15.5766 1.54199L2.43164 14.687" stroke="#727272" stroke-width="1.5" stroke-linecap="round" stroke-linejoin="round"/>
</svg>
